<?xml version="1.0" encoding="UTF-8"?> <svg xmlns="http://www.w3.org/2000/svg" width="124" height="38" viewBox="0 0 124 38" fill="none"> <g clip-path="url(#clip0_1155_13620)"> <path d="M41.2598 18.0815V5.33984H49.0691V6.27672C49.0691 7.2136 48.2738 8.00997 47.3388 8.00997H44.3927V10.6801H48.2738V11.5701C48.2738 12.5539 47.4789 13.3502 46.4971 13.3502H44.3927V18.0815H41.2598Z" fill="white"></path> <path d="M53.885 11.1017H55.2412C55.7556 11.1017 56.1297 10.9612 56.4102 10.6801C56.6907 10.399 56.8311 10.0243 56.8311 9.50898C56.8311 8.80633 56.5974 8.33789 56.0829 8.15052C55.8024 8.00997 55.4284 7.96314 54.9139 7.96314H53.885V11.1017ZM50.7988 18.0815V5.33984H55.2412C56.3634 5.33984 57.2051 5.43353 57.7196 5.62091C58.4677 5.90197 59.029 6.37041 59.4499 6.9794C59.8707 7.63522 60.0576 8.38472 60.0576 9.3216C60.0576 10.0243 59.8707 10.7269 59.5435 11.3828C59.2159 12.0386 58.7482 12.507 58.1405 12.8349V12.8818C58.2809 13.0223 58.4209 13.3034 58.6081 13.6313L61.0865 18.0815H57.626L55.3816 13.7718H53.9318V18.0815H50.7988Z" fill="white"></path> <path d="M62.49 18.0815V5.33984H70.4397V8.00997H65.6229V10.3053H69.4576V12.9755H65.6229V15.4114H70.7202V18.0815H62.49Z" fill="white"></path> <path d="M72.6836 18.0815V5.33984H80.6801V8.00997H75.8165V10.3053H79.6979V12.9755H75.8165V15.4114H80.9138V18.0815H72.6836Z" fill="white"></path> <path d="M86.0123 15.4114H87.2748C88.3503 15.4114 89.2388 15.0835 89.8469 14.4276C90.4546 13.7718 90.7819 12.8818 90.7819 11.6638C90.7819 10.4927 90.4546 9.55584 89.8469 8.94685C89.2388 8.33789 88.3971 8.00997 87.3216 8.00997H86.0591V15.4114H86.0123ZM82.9258 18.0815V5.33984H87.4617C89.4728 5.33984 91.0627 5.90197 92.2317 7.02623C93.4007 8.15052 94.0087 9.69635 94.0087 11.6638C94.0087 13.6781 93.4007 15.224 92.2317 16.3482C91.0627 17.4725 89.4728 18.0346 87.4617 18.0346H82.9258V18.0815Z" fill="white"></path> <path d="M98.543 11.6168C98.543 12.6942 98.8702 13.6311 99.5251 14.3338C100.18 15.0364 100.975 15.4112 102.004 15.4112C102.985 15.4112 103.827 15.0364 104.482 14.3338C105.136 13.6311 105.464 12.6942 105.464 11.6168C105.464 10.5862 105.136 9.69618 104.482 8.99354C103.827 8.29086 103.032 7.96297 102.004 7.96297C101.021 7.96297 100.18 8.29086 99.5251 8.99354C98.8702 9.69618 98.543 10.5862 98.543 11.6168ZM95.3164 11.6168C95.3164 9.74304 95.9242 8.19717 97.1868 6.97923C98.4494 5.76129 100.039 5.10547 101.957 5.10547C103.921 5.10547 105.511 5.71443 106.726 6.97923C107.989 8.24403 108.597 9.78987 108.597 11.6168C108.597 13.5374 107.989 15.0833 106.726 16.3949C105.464 17.6597 103.874 18.3155 101.957 18.3155C99.9924 18.3155 98.4026 17.6597 97.1868 16.3949C95.9242 15.1301 95.3164 13.5374 95.3164 11.6168Z" fill="white"></path> <path d="M110.094 18.0815L111.122 5.33984H114.489L116.36 10.7269L117.015 12.8349H117.061C117.295 11.9917 117.529 11.2891 117.716 10.7269L119.586 5.33984H122.953L123.982 18.0815H120.849L120.475 12.3665C120.428 12.0854 120.428 11.7575 120.428 11.3828C120.428 11.008 120.428 10.7269 120.428 10.5395V10.2117H120.381C120.101 11.1017 119.867 11.8043 119.68 12.3665L118.324 16.0672H115.658L114.302 12.3665L113.601 10.2117H113.554C113.601 11.008 113.601 11.7107 113.554 12.3665L113.18 18.0815H110.094Z" fill="white"></path> <path d="M0.515625 9.04094V0.5H31.7814V8.99408C31.7814 20.2213 27.8005 27.1843 23.8525 31.3399C21.8741 33.4223 19.8968 34.8069 18.4175 35.6696C17.678 36.1008 17.0637 36.4012 16.637 36.5928C16.4237 36.6886 16.2574 36.7571 16.1459 36.8012C16.1428 36.8024 16.1396 36.8036 16.1366 36.8049C16.1345 36.8041 16.1325 36.8034 16.1304 36.8027C16.0195 36.7645 15.8538 36.7045 15.6412 36.6194C15.2158 36.4491 14.603 36.1785 13.8651 35.7807C12.389 34.9849 10.4153 33.6818 8.43999 31.6572C4.49967 27.6184 0.515625 20.671 0.515625 9.04094Z" stroke="white"></path> <path fill-rule="evenodd" clip-rule="evenodd" d="M14.3778 36.605C15.1263 36.9651 15.6823 37.1754 15.9565 37.2716C15.6813 37.1763 15.1246 36.9673 14.3778 36.605ZM12.4531 35.538C7.69055 32.5661 0.015625 25.2606 0.015625 9.04094V0H32.2814V8.99408C32.2814 27.4536 21.6312 34.6257 17.6374 36.6663C21.6322 34.6248 32.2803 27.4521 32.2803 8.99455V2.20215C32.2803 5.99653 30.5969 8.99455 25.453 9.08824H12.4531V16.5833H25.453V18.8319C25.453 22.6262 24.3775 25.6711 18.6257 25.6711H12.4531V35.538Z" fill="white"></path> <path d="M41.3065 30.917V21.9697H45.0007C45.8425 21.9697 46.5438 22.2508 47.1051 22.8129C47.6195 23.375 47.9 24.1246 47.9 25.0146C47.9 25.9046 47.6195 26.6541 47.1051 27.2631C46.5906 27.8252 45.8893 28.1532 45.0007 28.1532H43.5045V30.917H41.3065ZM43.5045 26.2794H44.5799C44.9539 26.2794 45.2344 26.1857 45.4216 25.9515C45.6085 25.7172 45.7021 25.4362 45.7021 25.0614C45.7021 24.6867 45.6085 24.4056 45.4216 24.1714C45.2344 23.9372 44.9539 23.8435 44.6267 23.8435H43.5045V26.2794Z" fill="white"></path> <path d="M48.1797 30.918L51.2194 21.9707H53.5106L56.5502 30.918H54.3055L53.7446 29.0442H50.9854L50.4712 30.918H48.1797ZM51.4998 27.2641H53.2769L52.7624 25.5308L52.3884 23.985H52.3416C52.2012 24.6408 52.1079 25.1561 51.9675 25.5308L51.4998 27.2641Z" fill="white"></path> <path d="M59.3565 30.917V27.2631L56.4104 21.9697H58.8888L59.9177 24.1245L60.4319 25.3894H60.4787C60.6659 24.9209 60.8063 24.4993 60.9931 24.1245L61.9753 21.9697H64.4537L61.5076 27.2631V30.917H59.3565Z" fill="white"></path> </g> <defs> <clipPath id="clip0_1155_13620"> <rect width="123.967" height="37.5" fill="white" transform="translate(0.015625)"></rect> </clipPath> </defs> </svg> 