<svg width="120" height="50" viewBox="0 0 1185 411" fill="none" xmlns="http://www.w3.org/2000/svg">
    <path d="M814.48 37.925L738.016 259.11H789.317L806.288 206.892H876.217L893.188 259.11H944.489L869.683 37.925H814.48ZM815.748 171.947C832.719 117.445 840.229 90.4417 840.619 87.7612C841.594 90.4417 849.396 117.345 866.757 171.947H815.748Z"
          fill="rgb(100, 64, 191)"></path>
    <path d="M230.176 37.925L153.711 259.11H205.013L221.983 206.892H291.913L308.883 259.11H360.184L285.378 37.925H230.176ZM231.541 171.947C248.511 117.445 256.021 90.4417 256.411 87.7612C257.387 90.4417 265.189 117.345 282.55 171.947H231.541Z"
          fill="rgb(100, 64, 191)"></path>
    <path d="M162.682 37.925H2.24414V76.5431H56.5688V259.11H105.237V76.5431H156.538L162.682 37.925Z"
          fill="rgb(100, 64, 191)"></path>
    <path d="M653.264 37.925H604.596V259.11H720.267L726.802 220.492H653.264V37.925Z" fill="rgb(100, 64, 191)"></path>
    <path d="M1113.61 37.925V168.671C1113.61 168.671 1098.3 147.724 1020.86 37.925H978.335V259.11H1027.39V126.082L1120.83 259.11H1161.99V37.925H1113.61Z"
          fill="rgb(100, 64, 191)"></path>
    <path d="M56.668 309.243V385.188H62.3248V351.733H75.8816C82.3186 351.733 87.0976 350.343 90.7063 348.655C97.5335 345.478 101.825 338.529 101.825 329.892C101.825 321.652 99.0939 316.391 94.8026 313.313C90.2186 310.136 84.4643 309.243 77.1495 309.243H56.668ZM75.6865 346.471H62.2273V314.405H76.9544C88.6581 314.405 95.6804 318.376 95.6804 329.892C95.6804 334.955 93.6322 340.018 89.926 342.798C86.61 345.379 80.7581 346.471 75.6865 346.471ZM221.008 309.243L192.334 385.188H198.381L207.939 359.575H239.929L249.584 385.188H255.729L227.055 309.243H221.008ZM238.076 354.612H209.792C220.227 326.219 223.251 317.582 223.739 316.093C224.226 317.582 227.542 326.12 238.076 354.612ZM364.183 385.188H369.937V355.009L397.539 309.243H390.907C375.497 334.26 371.986 340.316 367.011 349.052C362.037 340.217 358.331 334.161 343.214 309.243H336.484L364.183 355.108V385.188ZM497.703 309.243V385.188H503.36V318.674C503.36 318.674 507.066 324.73 529.01 357.491H529.595C551.345 325.226 555.149 318.674 555.149 318.674V385.188H560.903V309.243H555.149L529.498 348.159L503.555 309.243H497.703ZM669.162 309.243V385.188H709.442V380.125H674.916V348.754H704.566V343.493H674.916V314.504H707.102L707.979 309.243H669.162ZM811.752 309.243V385.188H817.507V320.163C817.507 320.163 821.798 326.318 867.15 385.188H870.661V309.243H865.004V373.176C865.004 373.176 860.225 366.326 816.141 309.243H811.752ZM992.575 314.405V385.188H998.329V314.405H1021.35L1022.22 309.243H969.265V314.405H992.575ZM1140.14 386.578C1152.14 386.578 1164.13 381.118 1164.13 365.333C1164.13 354.016 1157.99 349.251 1147.26 345.081L1140.82 342.599C1132.82 339.522 1126.29 336.047 1126.29 326.616C1126.29 317.185 1133.12 312.916 1143.55 312.916C1150.77 312.916 1156.23 315.001 1160.62 318.078L1161.5 312.022C1157.99 310.235 1150.96 307.952 1142.97 307.952C1128.92 307.952 1120.54 315.497 1120.54 326.814C1120.54 339.224 1127.85 342.996 1138.38 347.364L1144.14 349.648C1154.09 353.718 1158.38 357.888 1158.38 365.532C1158.38 376.849 1150.67 381.614 1140.53 381.614C1130.39 381.614 1124.05 378.735 1118.97 374.665L1117.8 381.019C1122.49 383.898 1130.19 386.578 1140.14 386.578Z"
          fill="rgb(100, 64, 191)"></path>
    <path d="M544.028 190.61C540.419 182.668 534.86 172.939 529.3 166.983C522.766 160.331 517.499 157.353 510.672 155.368C517.889 154.077 527.057 150.007 531.544 146.433C543.93 137.796 554.463 123.798 554.463 100.568C554.463 73.664 542.662 56.2908 525.692 47.356C512.33 39.414 491.068 37.7263 468.539 37.7263L394.025 38.0241V75.3517L394.123 75.451L394.513 75.6495L394.805 75.7488L395.196 75.8481L395.586 75.9473L396.171 76.0466H396.463H396.854H397.244L397.829 75.7488L398.804 75.1531L399.975 74.3589L401.73 73.1676L403.973 71.6785L405.924 70.2886L407.582 69.0973L409.533 67.8068L411.483 66.4169L413.629 64.9278L415.384 63.7365L417.14 62.6444L418.896 61.4531L420.651 60.3611L422.407 59.2691L424.552 57.9785L426.698 56.8865L428.258 56.1915L430.209 55.3973L432.16 54.7024L434.305 54.1068L436.841 53.5111L439.475 52.9154L442.498 52.4191L445.424 52.022L448.447 51.7241L451.471 51.6249H453.324H455.372H457.323H458.786L460.249 51.7241L461.517 51.8234L463.077 51.9227L465.223 52.1212L467.466 52.4191L468.344 52.5183L469.904 52.8162L471.465 53.114L473.123 53.4118L474.586 53.7097L476.341 54.1068L477.512 54.4046C477.512 54.4046 477.999 54.5039 478.389 54.6031C478.682 54.7024 478.779 54.8017 478.779 54.8017C478.779 54.8017 478.779 54.6031 478.877 54.4046C478.975 54.0075 479.56 52.6176 480.73 50.5328C481.9 48.4481 483.851 46.8597 483.851 46.8597L484.729 46.264L485.607 45.7676L486.679 45.2712L488.142 44.7749L487.85 45.8669L487.655 46.6611L487.46 47.4553L487.265 48.4481L487.07 49.2423L486.875 50.3343C486.875 50.3343 486.777 51.1285 486.777 51.2278L486.679 52.3198L486.582 53.4118L486.484 54.4046L486.387 55.993V56.7872V57.5814V58.177L486.484 58.9712L486.679 60.1625L486.777 61.056L486.875 61.751L487.167 63.0415L487.362 63.4386L487.557 64.0343L487.752 64.6299L488.142 65.4241L488.728 66.6154L489.215 67.4097L489.996 68.9981L490.288 69.5937L490.581 70.1894L490.971 70.9836L491.654 72.2741L492.044 72.9691L492.531 73.7633L493.019 74.6568L493.702 75.9473L494.189 76.7415L494.677 77.635L495.262 78.8263L495.945 80.1169L496.53 81.1096L497.31 82.4995L497.798 83.5915L498.383 84.7828L498.871 85.7756L499.359 86.7684L499.749 87.5625L500.236 88.6546L500.626 89.6473L501.017 90.6401L501.309 91.335L501.602 92.1292L501.797 92.9234L501.992 93.7176L502.187 94.5118L502.284 95.2068V95.8024V96.1995V96.5966L502.187 96.9937L502.089 97.4901L501.992 97.9865L501.797 98.6814L501.602 99.277L501.407 99.972L501.309 100.369L501.212 100.865L501.114 101.263L500.919 101.759L500.724 102.255L500.529 102.752L500.334 103.05L500.236 103.248L500.041 103.546L499.749 103.844L499.456 104.042L499.163 104.241L498.871 104.439L498.383 104.638L497.896 104.737H497.505H496.92L496.14 104.638L495.555 104.439L494.97 104.241L494.189 103.943L493.702 103.744L492.824 103.248L492.044 102.752L491.263 102.255L490.191 101.461L489.215 100.667L488.24 99.7734L487.46 98.9792L486.777 98.2843L485.802 97.1923L485.412 96.6959H485.314H485.021L484.534 96.7952L484.046 96.8944H483.461H482.876H482.193H481.413L480.535 96.7952L479.657 96.6959L478.975 96.5966L478.097 96.3981L477.512 96.1995L476.829 96.001L475.854 95.6039L475.171 95.306L474.683 95.0082L474.098 94.7104L473.513 94.4126L472.928 94.0154L472.245 93.5191L471.562 92.9234L470.977 92.3278L470.392 91.7321L469.807 91.0372L469.124 90.1437L468.441 89.0517L467.856 88.0589L467.466 88.1582L466.686 88.456L466.1 88.6546L465.515 88.9524L464.442 89.4488L463.565 89.8459L462.687 90.3423L462.004 90.7394L461.224 91.1365L460.249 91.7321L459.468 92.2285L458.298 93.0227L457.42 93.6184L456.64 94.1147L455.665 94.8097L454.982 95.306L454.397 95.8024L453.812 96.2988L453.226 96.8944L452.641 97.3908L451.958 98.0857L451.373 98.6814L450.691 99.4756L450.203 100.071L449.715 100.667L449.13 101.461L448.642 102.156L448.057 103.149L447.472 104.241L446.984 105.234L446.789 105.829L446.497 106.723L446.107 108.013L445.814 108.907L445.521 109.999L445.229 110.992L444.936 112.084L444.741 112.977L444.644 113.871L444.546 114.665V115.657V116.352L444.644 117.047L444.839 117.742L445.034 118.338L445.229 118.834L445.424 119.132L445.717 119.628L446.204 120.224L446.497 120.522L446.789 120.721L447.082 120.919L447.472 121.118L447.96 121.415L448.642 121.713L449.715 122.11L450.105 122.21L450.788 122.408L451.373 122.607L452.251 122.805L453.812 123.202L455.079 123.5L456.25 123.798L457.128 123.997L457.518 124.096L458.103 124.195L458.591 124.294L459.273 124.493L459.761 124.692C459.761 124.692 459.956 124.791 460.151 124.791C460.346 124.89 461.614 125.386 461.614 125.386L462.589 125.883L463.272 126.28L463.565 126.578L464.052 126.975L464.345 127.273L464.735 127.769L465.028 128.265L465.125 128.563L465.32 129.06L465.418 129.357L465.515 129.755L465.613 130.152V130.549V131.045V131.542L465.515 131.939L465.418 132.534L465.223 133.229L465.028 133.924L464.833 134.52L464.442 135.413C464.442 135.413 463.955 136.307 463.662 136.704C463.37 137.101 462.979 137.597 462.784 137.895C462.589 138.193 461.614 139.285 461.224 139.682C460.834 140.079 460.249 140.576 460.249 140.576L459.371 141.37L458.396 142.164L456.737 143.554L455.567 144.547L454.202 145.639L452.251 147.227L449.813 149.213L447.667 150.9L445.717 152.489L443.083 154.573L440.157 156.956L437.036 159.339L434.208 161.523L431.379 163.707L429.721 164.997L428.649 165.891L427.868 166.486L427.283 166.784L425.918 167.281L423.382 168.075L419.871 169.068L416.165 169.961L409.923 171.45L404.363 172.642C404.363 172.642 401.145 173.237 400.56 173.336C400.072 173.436 400.072 173.336 399.975 173.237C399.877 173.138 399.975 172.741 399.975 172.642C399.975 172.542 400.267 171.649 400.267 171.649L400.657 170.457L401.242 169.167L401.925 167.777L402.51 166.586L403.583 164.6L404.461 163.111L405.436 161.721L406.021 161.026L406.412 160.728L406.704 160.53H406.899H407.972L409.63 160.629L411.288 160.728L414.702 161.026L416.262 161.126H417.92H419.481L420.651 161.026C420.651 161.026 421.431 160.927 421.626 160.828C421.821 160.828 422.114 160.629 422.114 160.629L422.894 160.133L423.87 159.438L425.43 158.147L426.698 157.055L428.746 155.169L430.989 152.985L433.135 150.801L435.183 148.716L437.329 146.433L439.084 144.348L440.352 142.76L441.523 141.171C441.523 141.171 441.913 140.576 442.205 139.98C442.498 139.384 442.693 138.59 442.693 138.491C442.693 138.392 442.693 138.193 442.498 137.994C442.303 137.796 441.62 137.597 441.035 137.498C440.742 137.399 439.182 137.101 438.889 137.101C438.597 137.002 437.231 136.803 436.744 136.803C436.451 136.704 430.989 136.207 430.989 136.207L425.333 135.711L420.163 135.413L414.897 135.115L410.508 135.016H407.289L404.168 135.115C404.168 135.115 404.071 135.115 402.023 135.314C399.194 135.513 394.123 146.036 394.123 146.036V259.21H443.181V172.046H458.2C469.612 172.046 476.536 174.031 482.388 179.392C488.24 184.753 492.141 193.688 496.725 203.318L522.181 259.21H575.433L544.028 190.61Z"
          fill="rgb(100, 64, 191)"></path>
</svg>