<svg width="94" height="26" viewBox="0 0 94 26" fill="none" xmlns="http://www.w3.org/2000/svg">
    <g clip-path="url(#clip0_788_4770)">
        <path d="M60.0467 14.5335H60.4229L64.6151 20.8049H68.4311L63.5312 14.2287C64.2835 14.0862 64.8527 13.8306 65.2536 13.5505C66.481 12.7297 67.0898 11.3977 67.0898 9.87903C67.0898 8.70928 66.7384 7.37733 65.5357 6.36977C64.8032 5.76031 63.6994 5.20001 61.5316 5.20001H56.983V20.8049H60.0467V14.5335ZM60.0467 7.67714H60.9673C61.5316 7.67714 63.937 7.70171 63.937 10.0166C63.937 12.3316 61.5118 12.3807 60.9228 12.3807H60.0517V7.67714H60.0467Z" fill="#00858A"/>
        <path d="M74.8802 11.1864L79.0031 21.0114H79.8495L84.1654 11.1864L85.576 20.8049H88.6892L86.0462 4.91495H83.9278L79.4733 15.1184L75.2118 4.91495H73.0885L70.1683 20.8049H73.2766L74.8802 11.1864Z" fill="#00858A"/>
        <path d="M0 0V26H94V0H0ZM7.94387 20.8H4.88016V5.19509H7.94387V20.8ZM22.1834 18.1803V20.8H9.83456L17.4666 7.81474H11.0323V5.19509H22.5547L14.9226 18.1803H22.1785H22.1834ZM31.5429 21.1539C26.5934 21.1539 23.1535 17.7626 23.1535 13.0098C23.1535 8.25709 26.5934 4.84612 31.5429 4.84612C36.4923 4.84612 39.9322 8.262 39.9322 13.0098C39.9322 17.7577 36.4923 21.1539 31.5429 21.1539ZM45.1984 5.19509H45.1836V23.4246H42.1198V5.19509H39.1007V2.57543H48.173V2.60491H48.2374V5.19509H45.1935H45.1984ZM91.3768 23.3951H48.2423V20.8049H53.9144V18.1853H48.2572V13.9289H53.6768V11.3093H48.2572V7.82457H53.9144V5.20492H51.3011V2.61474H91.3768V23.4049V23.3951Z" fill="#00858A"/>
        <path d="M31.538 7.60339C28.4743 7.60339 26.3064 9.84952 26.3064 13.0098C26.3064 16.1701 28.4743 18.3917 31.538 18.3917C34.6017 18.3917 36.7695 16.1701 36.7695 13.0098C36.7695 9.84952 34.6017 7.60339 31.538 7.60339Z" fill="#00858A"/>
    </g>
    <defs>
        <clipPath id="clip0_788_4770">
            <rect width="94" height="26" fill="white"/>
        </clipPath>
    </defs>
</svg>